<svg width="277" height="52" viewBox="0 0 277 52" fill="none" xmlns="http://www.w3.org/2000/svg">
<path d="M19.2029 23.6762L31.2789 1.10278H24.986L15.9592 17.9684L6.38554 1.10278H0L12.8637 23.7591L16.1075 29.4669L27.9147 50.1162H34.3002L19.2029 23.6762Z" fill="url(#paint0_linear_51_1032)"/>
<path d="M19.2029 23.6762L31.2789 1.10278H24.986L15.9592 17.9684L6.38554 1.10278H0L12.8637 23.7591L16.1075 29.4669L27.9147 50.1162H34.3002L19.2029 23.6762Z" fill="url(#paint1_linear_51_1032)"/>
<path d="M53.6883 1.10278V13.3972L61.8811 31.8604H47.6179V37.3841H64.2166L69.6104 50.1162H75.6438L53.6883 1.10278Z" fill="url(#paint2_linear_51_1032)"/>
<path d="M53.6883 1.10278V13.3972L61.8811 31.8604H47.6179V37.3841H64.2166L69.6104 50.1162H75.6438L53.6883 1.10278Z" fill="url(#paint3_linear_51_1032)"/>
<path d="M254.716 1.10278V13.3972L262.909 31.8604H248.646V37.3841H265.245L270.638 50.1162H276.672L254.716 1.10278Z" fill="url(#paint4_linear_51_1032)"/>
<path d="M254.716 1.10278V13.3972L262.909 31.8604H248.646V37.3841H265.245L270.638 50.1162H276.672L254.716 1.10278Z" fill="url(#paint5_linear_51_1032)"/>
<path d="M130.898 1.10278H125.338V50.1162H130.898V1.10278Z" fill="url(#paint6_linear_51_1032)"/>
<path d="M130.898 1.10278H125.338V50.1162H130.898V1.10278Z" fill="url(#paint7_linear_51_1032)"/>
<path d="M130.898 1.10278H125.338V50.1162H130.898V1.10278Z" fill="url(#paint8_linear_51_1032)"/>
<path d="M144.216 50.1162H150.721L180.801 1.10278H144.697V6.62646H170.92L144.216 50.1162Z" fill="url(#paint9_linear_51_1032)"/>
<path d="M144.216 50.1162H150.721L180.801 1.10278H144.697V6.62646H170.92L144.216 50.1162Z" fill="url(#paint10_linear_51_1032)"/>
<path d="M144.216 50.1162H150.721L180.801 1.10278H144.697V6.62646H170.92L144.216 50.1162Z" fill="url(#paint11_linear_51_1032)"/>
<path d="M189.915 50.4134L194.884 19.1225L209.807 51.219L224.73 19.1225L229.699 50.4134H235.328L227.322 0L209.807 37.7598L192.292 0L184.286 50.4134H189.915Z" fill="url(#paint12_linear_51_1032)"/>
<path d="M189.915 50.4134L194.884 19.1225L209.807 51.219L224.73 19.1225L229.699 50.4134H235.328L227.322 0L209.807 37.7598L192.292 0L184.286 50.4134H189.915Z" fill="url(#paint13_linear_51_1032)"/>
<path d="M189.915 50.4134L194.884 19.1225L209.807 51.219L224.73 19.1225L229.699 50.4134H235.328L227.322 0L209.807 37.7598L192.292 0L184.286 50.4134H189.915Z" fill="url(#paint14_linear_51_1032)"/>
<path d="M94.8387 23.0146H86.0112L104.773 50.1162H112.02L97.224 28.7439C103.82 27.6154 108.854 21.8928 108.854 15.024C108.854 7.34757 102.566 1.10278 94.8387 1.10278H88.951V7.03384H94.8387C99.274 7.03384 102.883 10.6181 102.883 15.024C102.883 19.4298 99.274 23.0146 94.8387 23.0146Z" fill="url(#paint15_linear_51_1032)"/>
<path d="M94.8387 23.0146H86.0112L104.773 50.1162H112.02L97.224 28.7439C103.82 27.6154 108.854 21.8928 108.854 15.024C108.854 7.34757 102.566 1.10278 94.8387 1.10278H88.951V7.03384H94.8387C99.274 7.03384 102.883 10.6181 102.883 15.024C102.883 19.4298 99.274 23.0146 94.8387 23.0146Z" fill="url(#paint16_linear_51_1032)"/>
<path d="M94.8387 23.0146H86.0112L104.773 50.1162H112.02L97.224 28.7439C103.82 27.6154 108.854 21.8928 108.854 15.024C108.854 7.34757 102.566 1.10278 94.8387 1.10278H88.951V7.03384H94.8387C99.274 7.03384 102.883 10.6181 102.883 15.024C102.883 19.4298 99.274 23.0146 94.8387 23.0146Z" fill="url(#paint17_linear_51_1032)"/>
<defs>
<linearGradient id="paint0_linear_51_1032" x1="0" y1="25.6095" x2="276.672" y2="25.6095" gradientUnits="userSpaceOnUse">
<stop stop-color="#EA422A"/>
<stop offset="0.0947882" stop-color="#EC5128"/>
<stop offset="0.523442" stop-color="#F69020"/>
<stop offset="0.836995" stop-color="#FDB71B"/>
<stop offset="1" stop-color="#FFC619"/>
</linearGradient>
<linearGradient id="paint1_linear_51_1032" x1="0" y1="25.6095" x2="276.672" y2="25.6095" gradientUnits="userSpaceOnUse">
<stop stop-color="#EA422A"/>
<stop offset="0.0947882" stop-color="#EC5128"/>
<stop offset="0.523442" stop-color="#F69020"/>
<stop offset="0.836995" stop-color="#FDB71B"/>
<stop offset="1" stop-color="#FFC619"/>
</linearGradient>
<linearGradient id="paint2_linear_51_1032" x1="-0.000112709" y1="25.6095" x2="276.672" y2="25.6095" gradientUnits="userSpaceOnUse">
<stop stop-color="#EA422A"/>
<stop offset="0.0947882" stop-color="#EC5128"/>
<stop offset="0.523442" stop-color="#F69020"/>
<stop offset="0.836995" stop-color="#FDB71B"/>
<stop offset="1" stop-color="#FFC619"/>
</linearGradient>
<linearGradient id="paint3_linear_51_1032" x1="-0.000112709" y1="25.6095" x2="276.672" y2="25.6095" gradientUnits="userSpaceOnUse">
<stop stop-color="#EA422A"/>
<stop offset="0.0947882" stop-color="#EC5128"/>
<stop offset="0.523442" stop-color="#F69020"/>
<stop offset="0.836995" stop-color="#FDB71B"/>
<stop offset="1" stop-color="#FFC619"/>
</linearGradient>
<linearGradient id="paint4_linear_51_1032" x1="0.000689" y1="25.6095" x2="276.672" y2="25.6095" gradientUnits="userSpaceOnUse">
<stop stop-color="#EA422A"/>
<stop offset="0.0947882" stop-color="#EC5128"/>
<stop offset="0.523442" stop-color="#F69020"/>
<stop offset="0.836995" stop-color="#FDB71B"/>
<stop offset="1" stop-color="#FFC619"/>
</linearGradient>
<linearGradient id="paint5_linear_51_1032" x1="0.000689" y1="25.6095" x2="276.672" y2="25.6095" gradientUnits="userSpaceOnUse">
<stop stop-color="#EA422A"/>
<stop offset="0.0947882" stop-color="#EC5128"/>
<stop offset="0.523442" stop-color="#F69020"/>
<stop offset="0.836995" stop-color="#FDB71B"/>
<stop offset="1" stop-color="#FFC619"/>
</linearGradient>
<linearGradient id="paint6_linear_51_1032" x1="-0.000604836" y1="25.6095" x2="276.672" y2="25.6095" gradientUnits="userSpaceOnUse">
<stop stop-color="#EA422A"/>
<stop offset="0.0947882" stop-color="#EC5128"/>
<stop offset="0.523442" stop-color="#F69020"/>
<stop offset="0.836995" stop-color="#FDB71B"/>
<stop offset="1" stop-color="#FFC619"/>
</linearGradient>
<linearGradient id="paint7_linear_51_1032" x1="-0.000604836" y1="25.6095" x2="276.672" y2="25.6095" gradientUnits="userSpaceOnUse">
<stop stop-color="#EA422A"/>
<stop offset="0.0947882" stop-color="#EC5128"/>
<stop offset="0.523442" stop-color="#F69020"/>
<stop offset="0.836995" stop-color="#FDB71B"/>
<stop offset="1" stop-color="#FFC619"/>
</linearGradient>
<linearGradient id="paint8_linear_51_1032" x1="-0.000604836" y1="25.6095" x2="276.672" y2="25.6095" gradientUnits="userSpaceOnUse">
<stop stop-color="#EA422A"/>
<stop offset="0.0947882" stop-color="#EC5128"/>
<stop offset="0.523442" stop-color="#F69020"/>
<stop offset="0.836995" stop-color="#FDB71B"/>
<stop offset="1" stop-color="#FFC619"/>
</linearGradient>
<linearGradient id="paint9_linear_51_1032" x1="0.000137296" y1="25.6095" x2="276.672" y2="25.6095" gradientUnits="userSpaceOnUse">
<stop stop-color="#EA422A"/>
<stop offset="0.0947882" stop-color="#EC5128"/>
<stop offset="0.523442" stop-color="#F69020"/>
<stop offset="0.836995" stop-color="#FDB71B"/>
<stop offset="1" stop-color="#FFC619"/>
</linearGradient>
<linearGradient id="paint10_linear_51_1032" x1="0.000137296" y1="25.6095" x2="276.672" y2="25.6095" gradientUnits="userSpaceOnUse">
<stop stop-color="#EA422A"/>
<stop offset="0.0947882" stop-color="#EC5128"/>
<stop offset="0.523442" stop-color="#F69020"/>
<stop offset="0.836995" stop-color="#FDB71B"/>
<stop offset="1" stop-color="#FFC619"/>
</linearGradient>
<linearGradient id="paint11_linear_51_1032" x1="0.000137296" y1="25.6095" x2="276.672" y2="25.6095" gradientUnits="userSpaceOnUse">
<stop stop-color="#EA422A"/>
<stop offset="0.0947882" stop-color="#EC5128"/>
<stop offset="0.523442" stop-color="#F69020"/>
<stop offset="0.836995" stop-color="#FDB71B"/>
<stop offset="1" stop-color="#FFC619"/>
</linearGradient>
<linearGradient id="paint12_linear_51_1032" x1="0.000200174" y1="25.6095" x2="276.672" y2="25.6095" gradientUnits="userSpaceOnUse">
<stop stop-color="#EA422A"/>
<stop offset="0.0947882" stop-color="#EC5128"/>
<stop offset="0.523442" stop-color="#F69020"/>
<stop offset="0.836995" stop-color="#FDB71B"/>
<stop offset="1" stop-color="#FFC619"/>
</linearGradient>
<linearGradient id="paint13_linear_51_1032" x1="0.000200174" y1="25.6095" x2="276.672" y2="25.6095" gradientUnits="userSpaceOnUse">
<stop stop-color="#EA422A"/>
<stop offset="0.0947882" stop-color="#EC5128"/>
<stop offset="0.523442" stop-color="#F69020"/>
<stop offset="0.836995" stop-color="#FDB71B"/>
<stop offset="1" stop-color="#FFC619"/>
</linearGradient>
<linearGradient id="paint14_linear_51_1032" x1="0.000200174" y1="25.6095" x2="276.672" y2="25.6095" gradientUnits="userSpaceOnUse">
<stop stop-color="#EA422A"/>
<stop offset="0.0947882" stop-color="#EC5128"/>
<stop offset="0.523442" stop-color="#F69020"/>
<stop offset="0.836995" stop-color="#FDB71B"/>
<stop offset="1" stop-color="#FFC619"/>
</linearGradient>
<linearGradient id="paint15_linear_51_1032" x1="-3.68244e-05" y1="25.6095" x2="276.672" y2="25.6095" gradientUnits="userSpaceOnUse">
<stop stop-color="#EA422A"/>
<stop offset="0.0947882" stop-color="#EC5128"/>
<stop offset="0.523442" stop-color="#F69020"/>
<stop offset="0.836995" stop-color="#FDB71B"/>
<stop offset="1" stop-color="#FFC619"/>
</linearGradient>
<linearGradient id="paint16_linear_51_1032" x1="-3.68244e-05" y1="25.6095" x2="276.672" y2="25.6095" gradientUnits="userSpaceOnUse">
<stop stop-color="#EA422A"/>
<stop offset="0.0947882" stop-color="#EC5128"/>
<stop offset="0.523442" stop-color="#F69020"/>
<stop offset="0.836995" stop-color="#FDB71B"/>
<stop offset="1" stop-color="#FFC619"/>
</linearGradient>
<linearGradient id="paint17_linear_51_1032" x1="-3.68244e-05" y1="25.6095" x2="276.672" y2="25.6095" gradientUnits="userSpaceOnUse">
<stop stop-color="#EA422A"/>
<stop offset="0.0947882" stop-color="#EC5128"/>
<stop offset="0.523442" stop-color="#F69020"/>
<stop offset="0.836995" stop-color="#FDB71B"/>
<stop offset="1" stop-color="#FFC619"/>
</linearGradient>
</defs>
</svg>
